<svg width="43" height="43" viewBox="0 0 43 43" fill="none" xmlns="http://www.w3.org/2000/svg">
<path d="M36.3404 18.5545H21.4212V24.7375H30.0069C29.2078 28.6667 25.8627 30.9242 21.4212 30.9242C20.1784 30.9263 18.9474 30.683 17.7988 30.2084C16.6502 29.7337 15.6066 29.0369 14.7279 28.158C13.8491 27.2791 13.1526 26.2354 12.6781 25.0867C12.2036 23.938 11.9606 22.707 11.963 21.4642C11.9609 20.2215 12.2041 18.9906 12.6786 17.8422C13.1532 16.6937 13.8498 15.6502 14.7285 14.7715C15.6072 13.8928 16.6507 13.1962 17.7992 12.7216C18.9477 12.247 20.1785 12.0038 21.4212 12.006C23.6769 12.006 25.7158 12.8068 27.3158 14.1165L31.9741 9.46C29.1361 6.98571 25.4972 5.45921 21.4212 5.45921C19.3174 5.45306 17.2332 5.86289 15.2884 6.66512C13.3436 7.46736 11.5766 8.64617 10.089 10.1338C8.60141 11.6214 7.42259 13.3884 6.62036 15.3332C5.81812 17.278 5.40829 19.3622 5.41444 21.466C5.40805 23.5698 5.81772 25.6541 6.61987 27.599C7.42203 29.5439 8.60083 31.311 10.0885 32.7987C11.5761 34.2863 13.3432 35.4651 15.2881 36.2673C17.233 37.0694 19.3174 37.4791 21.4212 37.4727C29.4246 37.4727 36.7023 31.6516 36.7023 21.466C36.7023 20.52 36.5572 19.5005 36.3404 18.5545Z" fill="black"/>
</svg>
