<svg width="50" height="50" viewBox="0 0 50 50" fill="none" xmlns="http://www.w3.org/2000/svg">
<path fill-rule="evenodd" clip-rule="evenodd" d="M25.0542 4.16666C13.5771 4.16666 4.27499 13.4687 4.27499 24.9458C4.27499 34.125 10.2271 41.9146 18.4854 44.6646C19.525 44.8521 19.9 44.2125 19.9 43.6625C19.9 43.1687 19.8833 41.8604 19.8771 40.1292C14.0958 41.3833 12.875 37.3417 12.875 37.3417C11.9333 34.9417 10.5687 34.3021 10.5687 34.3021C8.68333 33.0125 10.7125 33.0417 10.7125 33.0417C12.8 33.1875 13.8937 35.1833 13.8937 35.1833C15.7479 38.3583 18.7604 37.4417 19.9396 36.9104C20.1292 35.5667 20.6708 34.65 21.2625 34.1312C16.65 33.6083 11.8 31.825 11.8 23.8604C11.8 21.5958 12.6104 19.7375 13.9333 18.2875C13.7229 17.7604 13.0042 15.6458 14.1396 12.7875C14.1396 12.7875 15.8833 12.2271 19.8521 14.9146C21.5471 14.4535 23.2955 14.2181 25.0521 14.2146C26.8087 14.2174 28.5572 14.4528 30.2521 14.9146C34.2229 12.225 35.9646 12.7875 35.9646 12.7875C37.1 15.6458 36.3875 17.7604 36.1708 18.2875C37.5042 19.7375 38.3042 21.5937 38.3042 23.8604C38.3042 31.8458 33.45 33.6 28.8208 34.1146C29.5604 34.7562 30.2271 36.0229 30.2271 37.9604C30.2271 40.7396 30.2021 42.9812 30.2021 43.6625C30.2021 44.2187 30.5729 44.8646 31.6333 44.6604C39.8875 41.9062 45.8333 34.1229 45.8333 24.9458C45.8333 13.4687 36.5312 4.16666 25.0542 4.16666Z" fill="black"/>
</svg>
