<svg width="55" height="55" viewBox="0 0 55 55" fill="none" xmlns="http://www.w3.org/2000/svg">
<path d="M27.4977 16.9056C24.6873 16.9056 21.992 18.0221 20.0048 20.0093C18.0175 21.9966 16.9011 24.6919 16.9011 27.5023C16.9011 30.3127 18.0175 33.008 20.0048 34.9953C21.992 36.9825 24.6873 38.099 27.4977 38.099C30.3081 38.099 33.0034 36.9825 34.9907 34.9953C36.978 33.008 38.0944 30.3127 38.0944 27.5023C38.0944 24.6919 36.978 21.9966 34.9907 20.0093C33.0034 18.0221 30.3081 16.9056 27.4977 16.9056ZM27.4977 34.3842C25.6719 34.3842 23.9209 33.6589 22.6299 32.3679C21.3389 31.0768 20.6136 29.3258 20.6136 27.5C20.6136 25.6742 21.3389 23.9232 22.6299 22.6322C23.9209 21.3411 25.6719 20.6158 27.4977 20.6158C29.3235 20.6158 31.0745 21.3411 32.3656 22.6322C33.6566 23.9232 34.3819 25.6742 34.3819 27.5C34.3819 29.3258 33.6566 31.0768 32.3656 32.3679C31.0745 33.6589 29.3235 34.3842 27.4977 34.3842Z" fill="black"/>
<path d="M38.5138 18.9865C39.8782 18.9865 40.9842 17.8804 40.9842 16.516C40.9842 15.1517 39.8782 14.0456 38.5138 14.0456C37.1494 14.0456 36.0434 15.1517 36.0434 16.516C36.0434 17.8804 37.1494 18.9865 38.5138 18.9865Z" fill="black"/>
<path d="M47.0548 14.0044C46.5243 12.6344 45.7135 11.3902 44.6745 10.3516C43.6355 9.31297 42.391 8.50272 41.0208 7.97272C39.4174 7.37083 37.7235 7.04538 36.0112 7.01022C33.8044 6.91397 33.1054 6.88647 27.5092 6.88647C21.9129 6.88647 21.1956 6.88647 19.0071 7.01022C17.2961 7.04358 15.6034 7.3691 14.0021 7.97272C12.6315 8.5021 11.3867 9.31214 10.3476 10.3509C9.30852 11.3896 8.49802 12.634 7.96812 14.0044C7.36611 15.6077 7.0414 17.3017 7.00791 19.014C6.90937 21.2186 6.87958 21.9175 6.87958 27.5161C6.87958 33.1123 6.87958 33.825 7.00791 36.0181C7.04229 37.7323 7.36541 39.4236 7.96812 41.03C8.49951 42.3999 9.3108 43.6438 10.3502 44.6824C11.3895 45.721 12.6341 46.5313 14.0044 47.0617C15.6027 47.6878 17.2961 48.0365 19.0117 48.0929C21.2185 48.1892 21.9175 48.219 27.5137 48.219C33.11 48.219 33.8273 48.219 36.0158 48.0929C37.7279 48.0581 39.4218 47.7334 41.0254 47.1327C42.3953 46.6015 43.6393 45.7905 44.6783 44.7516C45.7172 43.7127 46.5281 42.4686 47.0594 41.0988C47.6621 39.4946 47.9852 37.8033 48.0196 36.0892C48.1181 33.8846 48.1479 33.1856 48.1479 27.5871C48.1479 21.9886 48.1479 21.2781 48.0196 19.085C47.9929 17.3486 47.6665 15.6298 47.0548 14.0044ZM44.2635 35.8486C44.2488 37.1693 44.0077 38.4776 43.5508 39.7169C43.2067 40.608 42.6798 41.4173 42.0041 42.0926C41.3284 42.7679 40.5189 43.2943 39.6275 43.6379C38.402 44.0927 37.1075 44.3338 35.8004 44.3506C33.6233 44.4515 33.0092 44.4767 27.4267 44.4767C21.8396 44.4767 21.269 44.4767 19.0506 44.3506C17.7442 44.3346 16.4503 44.0935 15.2258 43.6379C14.3314 43.2964 13.5185 42.771 12.84 42.0955C12.1614 41.4201 11.6321 40.6098 11.2865 39.7169C10.836 38.491 10.5951 37.198 10.5737 35.8921C10.4752 33.715 10.4523 33.1008 10.4523 27.5183C10.4523 21.9336 10.4523 21.3629 10.5737 19.1423C10.5886 17.8224 10.8296 16.5147 11.2865 15.2763C11.9854 13.4681 13.4177 12.045 15.2258 11.3529C16.4509 10.8995 17.7444 10.6585 19.0506 10.6402C21.23 10.5417 21.8419 10.5142 27.4267 10.5142C33.0115 10.5142 33.5844 10.5142 35.8004 10.6402C37.1076 10.6559 38.4023 10.8971 39.6275 11.3529C40.5188 11.6973 41.3282 12.2242 42.0039 12.8999C42.6795 13.5755 43.2064 14.385 43.5508 15.2763C44.0013 16.5022 44.2422 17.7952 44.2635 19.1011C44.3621 21.2804 44.3873 21.8923 44.3873 27.4771C44.3873 33.0596 44.3873 33.66 44.2887 35.8508H44.2635V35.8486Z" fill="black"/>
</svg>
