<svg width="51" height="51" viewBox="0 0 51 51" fill="none" xmlns="http://www.w3.org/2000/svg">
<path d="M41.7201 16.9936C41.7477 17.3655 41.7477 17.7353 41.7477 18.105C41.7477 29.4206 33.1351 42.4596 17.3952 42.4596C12.546 42.4596 8.041 41.055 4.25 38.6155C4.9385 38.6941 5.6015 38.7217 6.31762 38.7217C10.1702 38.7311 13.9137 37.4428 16.9447 35.0646C15.1585 35.0323 13.427 34.443 11.9919 33.3789C10.5568 32.3149 9.48979 30.8293 8.93987 29.1295C9.469 29.2081 10.0002 29.2612 10.557 29.2612C11.3241 29.2612 12.0955 29.155 12.8116 28.9701C10.8731 28.5787 9.13001 27.528 7.87869 25.9966C6.62737 24.4652 5.9451 22.5476 5.94787 20.57V20.4637C7.089 21.0991 8.41287 21.4965 9.81537 21.5496C8.64044 20.7689 7.67703 19.7094 7.0111 18.4658C6.34516 17.2222 5.99742 15.8331 5.99887 14.4224C5.99887 12.8329 6.42175 11.3751 7.16337 10.1044C9.31417 12.75 11.9967 14.9144 15.0372 16.4574C18.0777 18.0004 21.4084 18.8875 24.8136 19.0612C24.6819 18.4237 24.6011 17.7629 24.6011 17.0999C24.6006 15.9757 24.8216 14.8624 25.2515 13.8236C25.6815 12.7849 26.312 11.8411 27.1069 11.0461C27.9018 10.2512 28.8456 9.62075 29.8844 9.19079C30.9231 8.76083 32.0364 8.53982 33.1606 8.54038C35.6256 8.54038 37.8505 9.57313 39.4145 11.2434C41.3308 10.8728 43.1684 10.1733 44.846 9.17575C44.2072 11.1537 42.8692 12.831 41.0826 13.8933C42.7822 13.6994 44.4432 13.2525 46.0105 12.5673C44.8399 14.2738 43.3894 15.7704 41.7201 16.9936Z" fill="black"/>
</svg>
